# xmcd
#
# Track frame offsets: 
#        150
#        16995
#        34582
#        46052
#        60075
#        79487
#        98147
#        112357
#        127765
#        140730
#        155605
#
# Disc length: 2327 seconds
#
# Revision: 6
# Processed by: cddbd v1.5.2PL0 Copyright (c) Steve Scherf et al.
# Submitted via: ExactAudioCopyFreeDBPlugin 1.0
#
DISCID=8a09150b
DTITLE=Garth Brooks - No Fences
DYEAR=1990
DGENRE=Country
TTITLE0=The Thunder Rolls
TTITLE1=New Way to Fly
TTITLE2=Two of a Kind, Workin' on a Full House
TTITLE3=Victim of the Game
TTITLE4=Friends in Low Places
TTITLE5=This Ain't Tennessee
TTITLE6=Wild Horses
TTITLE7=Unanswered Prayers
TTITLE8=Same Old Story
TTITLE9=Mr. Blue
TTITLE10=Wolves
EXTD=YEAR: 1990
EXTT0=
EXTT1=
EXTT2=
EXTT3=
EXTT4=
EXTT5=
EXTT6=
EXTT7=
EXTT8=
EXTT9=
EXTT10=
PLAYORDER=
